<?xml version="1.0" standalone="no"?>
<!DOCTYPE svg PUBLIC "-//W3C//DTD SVG 20010904//EN"
 "http://www.w3.org/TR/2001/REC-SVG-20010904/DTD/svg10.dtd">
<svg version="1.0" xmlns="http://www.w3.org/2000/svg"
 width="820.000000pt" height="612.000000pt" viewBox="0 0 820.000000 612.000000"
 preserveAspectRatio="xMidYMid meet">

<g transform="translate(0.000000,612.000000) scale(0.100000,-0.100000)"
fill="#000000" stroke="none">
<path d="M4545 4890 c-212 -25 -456 -136 -625 -286 -275 -244 -500 -666 -500
-940 0 -41 3 -74 6 -74 3 0 26 14 51 31 54 38 267 140 341 164 37 12 52 22 52
35 0 37 52 196 99 300 112 252 293 455 496 558 247 124 539 146 862 63 43 -11
79 -19 81 -17 6 7 -175 78 -271 106 -53 16 -134 36 -178 45 -103 19 -310 27
-414 15z"/>
<path d="M4437 4499 c-48 -25 -164 -135 -228 -216 l-51 -63 45 -68 c127 -190
193 -368 218 -591 19 -163 -10 -370 -72 -519 -18 -43 -20 -57 -11 -77 27 -59
232 -175 339 -192 33 -6 33 -5 69 72 77 171 117 363 117 575 1 333 -102 665
-311 1008 -31 50 -61 92 -67 92 -5 -1 -27 -10 -48 -21z"/>
<path d="M4185 3703 c-525 -71 -984 -416 -1255 -941 -37 -72 -39 -78 -23 -90
66 -50 269 -127 361 -138 l59 -6 42 78 c91 169 245 345 386 441 126 85 307
160 430 178 86 13 92 18 106 82 16 73 14 271 -3 343 -12 51 -16 55 -43 56 -17
1 -43 0 -60 -3z"/>
<path d="M4988 3513 c2 -72 -2 -167 -12 -242 l-15 -125 112 -115 c295 -303
437 -603 437 -926 0 -297 -127 -570 -391 -837 -47 -49 -83 -88 -80 -88 21 1
205 153 301 249 185 185 296 372 358 601 23 86 25 113 25 280 0 168 -2 195
-27 294 -78 316 -259 632 -496 866 -66 66 -189 160 -209 160 -4 0 -5 -53 -3
-117z"/>
<path d="M2211 3335 c-1 -107 22 -275 54 -391 158 -579 660 -925 1339 -924
241 1 503 64 606 148 l24 20 -84 42 c-86 43 -178 104 -260 171 l-45 37 -100
-16 c-145 -22 -459 -22 -590 2 -255 45 -463 146 -616 299 -152 153 -257 356
-308 600 l-20 92 0 -80z"/>
<path d="M3995 3017 c-80 -30 -174 -88 -236 -145 l-50 -47 47 -69 c25 -38 90
-112 143 -165 255 -256 619 -413 1041 -451 131 -11 285 -13 354 -4 l46 7 0 56
c0 79 -17 174 -46 262 -39 120 -22 112 -240 114 -200 2 -256 10 -409 60 -84
28 -190 81 -282 142 -66 43 -197 165 -238 222 -35 47 -47 49 -130 18z"/>
</g>
</svg>
